<svg width="970" height="259" viewBox="0 0 970 259" fill="none" xmlns="http://www.w3.org/2000/svg">
<rect x="4" y="4" width="962" height="251" rx="26" fill="#FBBC01" stroke="black" stroke-width="8"/>
<path d="M7 28C7 16.9543 15.9543 8 27 8H161V251H27C15.9543 251 7 242.046 7 231V28Z" fill="#003399"/>
<path d="M257.8 172.3C257.667 172.767 257.367 173 256.9 173H245C244.667 173 244.4 172.867 244.2 172.6C244 172.267 243.967 171.933 244.1 171.6L272.7 86.2C272.833 85.7333 273.167 85.5 273.7 85.5H286.1C286.633 85.5 287 85.7333 287.2 86.2L315.7 171.6C315.833 171.933 315.8 172.267 315.6 172.6C315.4 172.867 315.133 173 314.8 173H302.9C302.433 173 302.133 172.767 302 172.3L296.1 154.4C295.967 153.933 295.633 153.7 295.1 153.7H264.8C264.2 153.7 263.833 153.933 263.7 154.4L257.8 172.3ZM281.1 108.9C280.9 108.367 280.567 108.1 280.1 108.1C279.633 108.1 279.3 108.367 279.1 108.9L269.1 138.7C268.9 139.367 269.133 139.7 269.8 139.7H290.2C290.467 139.7 290.667 139.567 290.8 139.3C291 138.967 291.033 138.633 290.9 138.3L281.1 108.9ZM362.14 139.7C361.407 139.7 360.94 139.433 360.74 138.9L358.14 127C357.94 126.4 358.173 125.967 358.84 125.7H362.34C364.073 125.7 365.707 125.367 367.24 124.7C368.84 123.967 370.24 123.033 371.44 121.9C372.64 120.7 373.573 119.3 374.24 117.7C374.973 116.1 375.34 114.4 375.34 112.6C375.34 110.8 374.973 109.1 374.24 107.5C373.573 105.9 372.64 104.533 371.44 103.4C370.24 102.2 368.84 101.267 367.24 100.6C365.64 99.8667 363.94 99.5 362.14 99.5H350.04C349.373 99.5 349.04 99.8333 349.04 100.5V171.9C349.04 172.633 348.673 173 347.94 173H336.14C335.407 173 335.04 172.633 335.04 171.9V86.5C335.04 85.8333 335.407 85.5 336.14 85.5H362.14C365.873 85.5 369.373 86.2333 372.64 87.7C375.973 89.1 378.873 91.0333 381.34 93.5C383.807 95.9 385.74 98.7667 387.14 102.1C388.607 105.367 389.34 108.867 389.34 112.6C389.34 116.333 388.607 119.867 387.14 123.2C385.74 126.467 383.807 129.333 381.34 131.8C378.873 134.2 375.973 136.133 372.64 137.6C369.373 139 365.873 139.7 362.14 139.7ZM419.975 108.9C419.975 109.167 420.042 109.4 420.175 109.6L424.175 114.9C424.775 115.633 425.375 115.633 425.975 114.9L443.275 86C443.475 85.6667 443.775 85.5 444.175 85.5H456.575C457.108 85.5 457.442 85.7 457.575 86.1C457.775 86.4333 457.775 86.7667 457.575 87.1L433.675 127C433.475 127.4 433.508 127.8 433.775 128.2L465.075 171.2C465.342 171.667 465.375 172.1 465.175 172.5C465.042 172.9 464.742 173.067 464.275 173H450.975C450.642 173 450.342 172.867 450.075 172.6L421.875 133.8C421.542 133.467 421.142 133.367 420.675 133.5C420.208 133.633 419.975 133.967 419.975 134.5V171.9C419.975 172.633 419.608 173 418.875 173H407.075C406.342 173 405.975 172.633 405.975 171.9V86.5C405.975 85.8333 406.342 85.5 407.075 85.5H418.875C419.608 85.5 419.975 85.8333 419.975 86.5V108.9ZM479.352 118C479.352 117.333 479.718 117 480.452 117H502.852C503.518 117 503.852 117.333 503.852 118V128.2C503.852 128.467 503.752 128.733 503.552 129C503.352 129.2 503.118 129.3 502.852 129.3H480.452C480.118 129.3 479.852 129.2 479.652 129C479.452 128.733 479.352 128.467 479.352 128.2V118ZM574.728 169.2C574.728 169.667 574.561 170.067 574.228 170.4C573.895 170.667 573.461 170.9 572.928 171.1C569.861 172.3 566.928 173.067 564.128 173.4C561.395 173.733 558.495 173.9 555.428 173.9C554.295 173.9 552.628 173.767 550.428 173.5C548.295 173.233 545.928 172.6 543.328 171.6C540.728 170.533 538.061 169 535.328 167C532.661 164.933 530.195 162.133 527.928 158.6C525.728 155 523.928 150.533 522.528 145.2C521.128 139.867 520.428 133.4 520.428 125.8C520.428 119.8 520.961 114.633 522.028 110.3C523.095 105.9 524.495 102.2 526.228 99.2C527.961 96.1333 529.928 93.6667 532.128 91.8C534.328 89.8667 536.595 88.3667 538.928 87.3C541.261 86.2333 543.561 85.5333 545.828 85.2C548.095 84.8 550.128 84.6 551.928 84.6C554.061 84.6 555.961 84.6667 557.628 84.8C559.295 84.8667 560.828 85.0333 562.228 85.3C563.695 85.5667 565.061 85.9333 566.328 86.4C567.661 86.8667 568.995 87.4333 570.328 88.1C570.728 88.3 571.095 88.6 571.428 89C571.828 89.3333 572.028 89.9 572.028 90.7V101.4C572.028 102.2 571.761 102.533 571.228 102.4C570.761 102.267 570.161 102.067 569.428 101.8C566.695 100.733 563.995 99.9333 561.328 99.4C558.661 98.8667 555.828 98.6 552.828 98.6C546.961 98.6 542.428 101.067 539.228 106C536.028 110.933 534.428 118.7 534.428 129.3C534.428 135.033 534.995 139.867 536.128 143.8C537.261 147.667 538.761 150.8 540.628 153.2C542.561 155.6 544.795 157.333 547.328 158.4C549.861 159.4 552.561 159.9 555.428 159.9C557.028 159.9 558.528 159.9 559.928 159.9C561.395 159.833 562.828 159.7 564.228 159.5C565.628 159.3 567.028 159.033 568.428 158.7C569.828 158.3 571.328 157.767 572.928 157.1C573.328 156.967 573.728 156.867 574.128 156.8C574.528 156.733 574.728 157 574.728 157.6V169.2ZM591.327 86.5C591.327 85.8333 591.693 85.5 592.427 85.5H604.227C604.96 85.5 605.327 85.8333 605.327 86.5V121.2C605.327 121.867 605.66 122.2 606.327 122.2H634.027C634.293 122.2 634.527 122.1 634.727 121.9C634.993 121.7 635.127 121.467 635.127 121.2V86.5C635.127 85.8333 635.46 85.5 636.127 85.5H648.027C648.693 85.5 649.027 85.8333 649.027 86.5V171.9C649.027 172.633 648.693 173 648.027 173H636.127C635.46 173 635.127 172.633 635.127 171.9V137.3C635.127 137.033 634.993 136.8 634.727 136.6C634.527 136.333 634.293 136.2 634.027 136.2H606.327C606.06 136.2 605.827 136.333 605.627 136.6C605.427 136.8 605.327 137.033 605.327 137.3V171.9C605.327 172.633 604.96 173 604.227 173H592.427C591.693 173 591.327 172.633 591.327 171.9V86.5ZM670.782 86.5C670.782 85.8333 671.149 85.5 671.882 85.5H716.982C717.249 85.5 717.482 85.6 717.682 85.8C717.949 86 718.082 86.2333 718.082 86.5V98.4C718.082 98.7333 717.949 99 717.682 99.2C717.482 99.4 717.249 99.5 716.982 99.5H685.882C685.149 99.5 684.782 99.8333 684.782 100.5V114.2C684.782 114.467 684.882 114.733 685.082 115C685.282 115.2 685.549 115.3 685.882 115.3H709.982C710.249 115.3 710.482 115.4 710.682 115.6C710.949 115.8 711.082 116.033 711.082 116.3V128.2C711.082 128.467 710.949 128.7 710.682 128.9C710.482 129.1 710.249 129.2 709.982 129.2H685.882C685.549 129.2 685.282 129.333 685.082 129.6C684.882 129.8 684.782 130.033 684.782 130.3V158C684.782 158.667 685.149 159 685.882 159H718.782C719.449 159 719.782 159.367 719.782 160.1V171.9C719.782 172.633 719.449 173 718.782 173H671.882C671.149 173 670.782 172.633 670.782 171.9V86.5ZM792.502 169.2C792.502 169.667 792.335 170.067 792.002 170.4C791.668 170.667 791.235 170.9 790.702 171.1C787.635 172.3 784.702 173.067 781.902 173.4C779.168 173.733 776.268 173.9 773.202 173.9C772.068 173.9 770.402 173.767 768.202 173.5C766.068 173.233 763.702 172.6 761.102 171.6C758.502 170.533 755.835 169 753.102 167C750.435 164.933 747.968 162.133 745.702 158.6C743.502 155 741.702 150.533 740.302 145.2C738.902 139.867 738.202 133.4 738.202 125.8C738.202 119.8 738.735 114.633 739.802 110.3C740.868 105.9 742.268 102.2 744.002 99.2C745.735 96.1333 747.702 93.6667 749.902 91.8C752.102 89.8667 754.368 88.3667 756.702 87.3C759.035 86.2333 761.335 85.5333 763.602 85.2C765.868 84.8 767.902 84.6 769.702 84.6C771.835 84.6 773.735 84.6667 775.402 84.8C777.068 84.8667 778.602 85.0333 780.002 85.3C781.468 85.5667 782.835 85.9333 784.102 86.4C785.435 86.8667 786.768 87.4333 788.102 88.1C788.502 88.3 788.868 88.6 789.202 89C789.602 89.3333 789.802 89.9 789.802 90.7V101.4C789.802 102.2 789.535 102.533 789.002 102.4C788.535 102.267 787.935 102.067 787.202 101.8C784.468 100.733 781.768 99.9333 779.102 99.4C776.435 98.8667 773.602 98.6 770.602 98.6C764.735 98.6 760.202 101.067 757.002 106C753.802 110.933 752.202 118.7 752.202 129.3C752.202 135.033 752.768 139.867 753.902 143.8C755.035 147.667 756.535 150.8 758.402 153.2C760.335 155.6 762.568 157.333 765.102 158.4C767.635 159.4 770.335 159.9 773.202 159.9C774.802 159.9 776.302 159.9 777.702 159.9C779.168 159.833 780.602 159.7 782.002 159.5C783.402 159.3 784.802 159.033 786.202 158.7C787.602 158.3 789.102 157.767 790.702 157.1C791.102 156.967 791.502 156.867 791.902 156.8C792.302 156.733 792.502 157 792.502 157.6V169.2ZM823.1 108.9C823.1 109.167 823.167 109.4 823.3 109.6L827.3 114.9C827.9 115.633 828.5 115.633 829.1 114.9L846.4 86C846.6 85.6667 846.9 85.5 847.3 85.5H859.7C860.233 85.5 860.567 85.7 860.7 86.1C860.9 86.4333 860.9 86.7667 860.7 87.1L836.8 127C836.6 127.4 836.633 127.8 836.9 128.2L868.2 171.2C868.467 171.667 868.5 172.1 868.3 172.5C868.167 172.9 867.867 173.067 867.4 173H854.1C853.767 173 853.467 172.867 853.2 172.6L825 133.8C824.667 133.467 824.267 133.367 823.8 133.5C823.333 133.633 823.1 133.967 823.1 134.5V171.9C823.1 172.633 822.733 173 822 173H810.2C809.467 173 809.1 172.633 809.1 171.9V86.5C809.1 85.8333 809.467 85.5 810.2 85.5H822C822.733 85.5 823.1 85.8333 823.1 86.5V108.9Z" fill="black"/>
</svg>
